<svg width="415" height="50" viewBox="0 0 415 50" fill="none" xmlns="http://www.w3.org/2000/svg">
<path d="M15.4365 1.22422V48.8242H5.23653V1.22422H15.4365ZM30.8725 23.9362V26.7922H15.2325V23.9362H30.8725ZM34.2045 1.22422V4.14822H15.2325V1.22422H34.2045ZM30.8725 26.6562V33.1842H30.1925V32.6402C30.1925 30.9629 29.6485 29.5802 28.5605 28.4922C27.4725 27.4042 26.0899 26.8376 24.4125 26.7922V26.6562H30.8725ZM30.8725 17.5442V24.0722H24.4125V23.9362C26.0899 23.8909 27.4725 23.3242 28.5605 22.2362C29.6485 21.1029 30.1925 19.6976 30.1925 18.0202V17.5442H30.8725ZM34.2045 3.94422V11.4922H33.5245V10.8122C33.5245 8.77222 32.9125 7.16288 31.6885 5.98422C30.5099 4.76022 28.9005 4.14822 26.8605 4.14822V3.94422H34.2045ZM34.2045 0.000215054V1.97222L25.9085 1.22422C26.9059 1.22422 27.9485 1.15622 29.0365 1.02022C30.1699 0.884217 31.2125 0.72555 32.1645 0.544216C33.1165 0.362882 33.7965 0.181549 34.2045 0.000215054ZM5.44053 43.8602V48.8242H0.000531465V48.1442C0.000531465 48.1442 0.136531 48.1442 0.408531 48.1442C0.725865 48.1442 0.884531 48.1442 0.884531 48.1442C2.0632 48.1442 3.06053 47.7362 3.87653 46.9202C4.73787 46.0589 5.1912 45.0389 5.23653 43.8602H5.44053ZM5.44053 6.18822H5.23653C5.1912 5.00955 4.73787 4.01222 3.87653 3.19622C3.06053 2.33488 2.0632 1.90421 0.884531 1.90421C0.884531 1.90421 0.725865 1.90421 0.408531 1.90421C0.136531 1.90421 0.000531465 1.90421 0.000531465 1.90421V1.22422H5.44053V6.18822ZM15.2325 43.8602H15.4365C15.4819 45.0389 15.9125 46.0589 16.7285 46.9202C17.5899 47.7362 18.6099 48.1442 19.7885 48.1442C19.7885 48.1442 19.9245 48.1442 20.1965 48.1442C20.4685 48.1442 20.6272 48.1442 20.6725 48.1442V48.8242H15.2325V43.8602ZM54.5843 1.22422V48.8242H44.3843V1.22422H54.5843ZM44.5883 43.8602V48.8242H39.1483V48.1442C39.1483 48.1442 39.2843 48.1442 39.5563 48.1442C39.8737 48.1442 40.0323 48.1442 40.0323 48.1442C41.211 48.1442 42.2083 47.7362 43.0243 46.9202C43.8857 46.0589 44.339 45.0389 44.3843 43.8602H44.5883ZM44.5883 6.18822H44.3843C44.339 5.00955 43.8857 4.01222 43.0243 3.19622C42.2083 2.33488 41.211 1.90421 40.0323 1.90421C40.0323 1.90421 39.8737 1.90421 39.5563 1.90421C39.2843 1.90421 39.1483 1.90421 39.1483 1.90421V1.22422H44.5883V6.18822ZM54.3803 43.8602H54.5843C54.6297 45.0389 55.0603 46.0589 55.8763 46.9202C56.7377 47.7362 57.7577 48.1442 58.9363 48.1442C58.9363 48.1442 59.0723 48.1442 59.3443 48.1442C59.6163 48.1442 59.775 48.1442 59.8203 48.1442V48.8242H54.3803V43.8602ZM54.3803 6.18822V1.22422H59.8203V1.90421C59.775 1.90421 59.6163 1.90421 59.3443 1.90421C59.0723 1.90421 58.9363 1.90421 58.9363 1.90421C57.7577 1.90421 56.7377 2.33488 55.8763 3.19622C55.0603 4.01222 54.6297 5.00955 54.5843 6.18822H54.3803ZM79.5212 1.22422V48.8242H69.3212V1.22422H79.5212ZM97.4732 45.9002L99.1052 48.8242H79.3172V45.9002H97.4732ZM102.437 34.8842L99.3092 48.8242H85.9812L88.4292 45.9002C90.6959 45.9002 92.6906 45.4696 94.4132 44.6082C96.1359 43.7016 97.6092 42.4322 98.8332 40.8002C100.057 39.1229 101.032 37.1509 101.757 34.8842H102.437ZM69.5252 43.8602V48.8242H64.0852V48.1442C64.0852 48.1442 64.2212 48.1442 64.4932 48.1442C64.8106 48.1442 64.9692 48.1442 64.9692 48.1442C66.1479 48.1442 67.1452 47.7362 67.9612 46.9202C68.8226 46.0589 69.2759 45.0389 69.3212 43.8602H69.5252ZM69.5252 6.18822H69.3212C69.2759 5.00955 68.8226 4.01222 67.9612 3.19622C67.1452 2.33488 66.1479 1.90421 64.9692 1.90421C64.9692 1.90421 64.8106 1.90421 64.4932 1.90421C64.2212 1.90421 64.0852 1.90421 64.0852 1.90421V1.22422H69.5252V6.18822ZM79.3172 6.18822V1.22422H84.7572V1.90421C84.7119 1.90421 84.5532 1.90421 84.2812 1.90421C84.0092 1.90421 83.8732 1.90421 83.8732 1.90421C82.6946 1.90421 81.6746 2.33488 80.8132 3.19622C79.9972 4.01222 79.5666 5.00955 79.5212 6.18822H79.3172ZM119.732 1.22422V48.8242H109.532V1.22422H119.732ZM137.684 45.9002L139.316 48.8242H119.528V45.9002H137.684ZM142.648 34.8842L139.52 48.8242H126.192L128.64 45.9002C130.906 45.9002 132.901 45.4696 134.624 44.6082C136.346 43.7016 137.82 42.4322 139.044 40.8002C140.268 39.1229 141.242 37.1509 141.968 34.8842H142.648ZM109.736 43.8602V48.8242H104.296V48.1442C104.296 48.1442 104.432 48.1442 104.704 48.1442C105.021 48.1442 105.18 48.1442 105.18 48.1442C106.358 48.1442 107.356 47.7362 108.172 46.9202C109.033 46.0589 109.486 45.0389 109.532 43.8602H109.736ZM109.736 6.18822H109.532C109.486 5.00955 109.033 4.01222 108.172 3.19622C107.356 2.33488 106.358 1.90421 105.18 1.90421C105.18 1.90421 105.021 1.90421 104.704 1.90421C104.432 1.90421 104.296 1.90421 104.296 1.90421V1.22422H109.736V6.18822ZM119.528 6.18822V1.22422H124.968V1.90421C124.922 1.90421 124.764 1.90421 124.492 1.90421C124.22 1.90421 124.084 1.90421 124.084 1.90421C122.905 1.90421 121.885 2.33488 121.024 3.19622C120.208 4.01222 119.777 5.00955 119.732 6.18822H119.528ZM177.032 11.6962C178.419 11.6962 179.771 11.8349 181.088 12.1122C182.44 12.3896 183.671 12.8056 184.78 13.3602C185.89 13.8802 186.739 14.5562 187.328 15.3882L185.456 22.8242H184.988C184.988 21.2642 184.763 19.8082 184.312 18.4562C183.862 17.1042 183.151 16.0122 182.18 15.1802C181.244 14.3136 179.979 13.8802 178.384 13.8802C176.651 13.8802 175.23 14.4522 174.12 15.5962C173.046 16.7402 172.508 18.1962 172.508 19.9642C172.508 21.9749 173.254 23.8989 174.744 25.7362C176.27 27.5389 178.454 29.6882 181.296 32.1842C182.024 32.8082 182.839 33.5362 183.74 34.3682C184.676 35.2002 185.595 35.9976 186.496 36.7602C187.432 37.5229 188.212 38.1816 188.836 38.7362C190.708 40.3309 192.407 41.7869 193.932 43.1042C195.458 44.4216 196.862 45.5309 198.144 46.4322C199.427 47.2989 200.64 47.9056 201.784 48.2522V48.8242C200.432 48.9629 198.872 49.0496 197.104 49.0842C195.336 49.1536 193.516 48.9802 191.644 48.5642C189.772 48.1482 187.952 47.3162 186.184 46.0682C185.283 45.4096 184.312 44.6642 183.272 43.8322C182.232 43.0002 181.192 42.1682 180.152 41.3362C179.147 40.4696 178.211 39.6722 177.344 38.9442C176.512 38.2162 175.836 37.6269 175.316 37.1762C173.306 35.4429 171.468 33.7269 169.804 32.0282C168.175 30.3296 166.875 28.5789 165.904 26.7762C164.934 24.9736 164.448 23.0322 164.448 20.9522C164.448 19.3576 164.795 17.9882 165.488 16.8442C166.182 15.6656 167.118 14.6949 168.296 13.9322C169.51 13.1696 170.862 12.6149 172.352 12.2682C173.878 11.8869 175.438 11.6962 177.032 11.6962ZM194.504 30.8322C194.574 32.7042 194.452 34.5416 194.14 36.3442C193.828 38.1122 193.274 39.7762 192.476 41.3362C191.714 42.8962 190.656 44.2829 189.304 45.4962C187.987 46.7096 186.323 47.6629 184.312 48.3562C182.336 49.0149 179.962 49.3442 177.188 49.3442C175.628 49.3442 173.999 49.2229 172.3 48.9802C170.602 48.7376 168.972 48.3562 167.412 47.8362C165.852 47.2816 164.431 46.5536 163.148 45.6522C161.9 44.7162 160.912 43.5896 160.184 42.2722C159.456 40.9549 159.092 39.3949 159.092 37.5922C159.092 36.1709 159.335 34.9402 159.82 33.9002C160.306 32.8256 160.947 31.9069 161.744 31.1442C162.576 30.3469 163.46 29.7056 164.396 29.2202C165.332 28.7349 166.251 28.3536 167.152 28.0762C168.088 27.7989 168.903 27.6429 169.596 27.6082L170.584 28.5962C170.307 28.8736 169.978 29.2202 169.596 29.6362C169.215 30.0522 168.834 30.5722 168.452 31.1962C168.071 31.8202 167.759 32.5829 167.516 33.4842C167.308 34.3509 167.239 35.3736 167.308 36.5522C167.378 38.2856 167.759 39.8282 168.452 41.1802C169.146 42.4976 170.03 43.6069 171.104 44.5082C172.214 45.3749 173.462 46.0336 174.848 46.4842C176.235 46.9349 177.674 47.1602 179.164 47.1602C181.002 47.1602 182.596 46.7789 183.948 46.0162C185.335 45.2189 186.479 44.1962 187.38 42.9482C188.282 41.7002 188.94 40.3309 189.356 38.8402C189.772 37.3496 189.946 35.8762 189.876 34.4202C189.807 32.9642 189.495 31.6469 188.94 30.4682C188.559 29.6362 188.091 29.0296 187.536 28.6482C187.016 28.2669 186.41 28.0762 185.716 28.0762H184.936V27.5562H197.104V28.0762H196.376C195.579 28.0762 195.059 28.3362 194.816 28.8562C194.608 29.3416 194.504 30.0002 194.504 30.8322ZM228.846 1.22422V48.8242H218.646V1.22422H228.846ZM246.798 45.9002L248.43 48.8242H228.642V45.9002H246.798ZM251.762 34.8842L248.634 48.8242H235.306L237.754 45.9002C240.02 45.9002 242.015 45.4696 243.738 44.6082C245.46 43.7016 246.934 42.4322 248.158 40.8002C249.382 39.1229 250.356 37.1509 251.082 34.8842H251.762ZM218.85 43.8602V48.8242H213.41V48.1442C213.41 48.1442 213.546 48.1442 213.818 48.1442C214.135 48.1442 214.294 48.1442 214.294 48.1442C215.472 48.1442 216.47 47.7362 217.286 46.9202C218.147 46.0589 218.6 45.0389 218.646 43.8602H218.85ZM218.85 6.18822H218.646C218.6 5.00955 218.147 4.01222 217.286 3.19622C216.47 2.33488 215.472 1.90421 214.294 1.90421C214.294 1.90421 214.135 1.90421 213.818 1.90421C213.546 1.90421 213.41 1.90421 213.41 1.90421V1.22422H218.85V6.18822ZM228.642 6.18822V1.22422H234.082V1.90421C234.036 1.90421 233.878 1.90421 233.606 1.90421C233.334 1.90421 233.198 1.90421 233.198 1.90421C232.019 1.90421 230.999 2.33488 230.138 3.19622C229.322 4.01222 228.891 5.00955 228.846 6.18822H228.642ZM280.687 0.272216C286.127 0.272216 290.842 1.29222 294.831 3.33222C298.866 5.32688 301.971 8.16022 304.147 11.8322C306.368 15.5042 307.479 19.9016 307.479 25.0242C307.479 30.1016 306.368 34.4989 304.147 38.2162C301.971 41.8882 298.866 44.7442 294.831 46.7842C290.842 48.7789 286.127 49.7762 280.687 49.7762C275.247 49.7762 270.51 48.7789 266.475 46.7842C262.486 44.7442 259.403 41.8882 257.227 38.2162C255.051 34.5442 253.963 30.1469 253.963 25.0242C253.963 19.9469 255.051 15.5722 257.227 11.9002C259.403 8.18288 262.486 5.32688 266.475 3.33222C270.51 1.29222 275.247 0.272216 280.687 0.272216ZM280.687 46.9202C283.906 46.9202 286.671 46.0362 288.983 44.2682C291.295 42.4549 293.086 39.9162 294.355 36.6522C295.624 33.3882 296.259 29.5122 296.259 25.0242C296.259 20.5362 295.624 16.6602 294.355 13.3962C293.086 10.1322 291.295 7.61622 288.983 5.84822C286.671 4.03488 283.906 3.12822 280.687 3.12822C277.514 3.12822 274.748 4.03488 272.391 5.84822C270.079 7.61622 268.288 10.1322 267.019 13.3962C265.75 16.6602 265.115 20.5362 265.115 25.0242C265.115 29.5122 265.75 33.3882 267.019 36.6522C268.288 39.9162 270.079 42.4549 272.391 44.2682C274.748 46.0362 277.514 46.9202 280.687 46.9202ZM358.863 28.9682L359.475 40.6642C358.478 42.3416 357.141 43.8602 355.463 45.2202C353.786 46.5802 351.701 47.6909 349.207 48.5522C346.714 49.3682 343.767 49.7762 340.367 49.7762C334.837 49.7309 329.986 48.7336 325.815 46.7842C321.69 44.7896 318.494 41.9562 316.227 38.2842C313.961 34.6122 312.827 30.1696 312.827 24.9562C312.827 19.8789 313.938 15.5042 316.159 11.8322C318.381 8.11488 321.554 5.25888 325.679 3.26422C329.85 1.26955 334.814 0.272216 340.571 0.272216C344.198 0.272216 347.439 0.634883 350.295 1.36022C353.197 2.08555 355.622 2.96955 357.571 4.01222L357.639 15.6402H357.027C355.803 11.1522 353.809 7.95622 351.043 6.05222C348.278 4.10288 345.037 3.12822 341.319 3.12822C337.693 3.12822 334.587 4.01222 332.003 5.78022C329.419 7.54822 327.425 10.0416 326.019 13.2602C324.614 16.4789 323.911 20.3322 323.911 24.8202C323.911 29.3082 324.569 33.1842 325.883 36.4482C327.243 39.7122 329.147 42.2509 331.595 44.0642C334.089 45.8776 337.013 46.8296 340.367 46.9202C343.858 46.9202 346.805 46.3536 349.207 45.2202C351.61 44.0869 353.537 42.2056 354.987 39.5762C356.483 36.9469 357.594 33.4109 358.319 28.9682H358.863ZM389.351 19.5162L407.167 43.9282C408.209 45.2882 409.275 46.3309 410.363 47.0562C411.451 47.7362 412.697 48.0989 414.103 48.1442V48.8242H408.527C408.028 48.8242 407.189 48.8016 406.011 48.7562C404.877 48.7109 403.585 48.5296 402.135 48.2122C400.684 47.8949 399.211 47.3509 397.715 46.5802C396.264 45.7642 394.995 44.6309 393.907 43.1802C393.68 42.8629 393.227 42.2509 392.547 41.3442C391.867 40.4376 391.073 39.3496 390.167 38.0802C389.26 36.8109 388.308 35.5189 387.311 34.2042C386.359 32.8442 385.452 31.5749 384.591 30.3962C383.729 29.2176 383.027 28.2656 382.483 27.5402C381.984 26.7696 381.735 26.3842 381.735 26.3842L389.351 19.5162ZM406.419 1.70022L385.951 25.9762L381.735 26.3842L400.435 1.70022H406.419ZM411.179 1.22422V1.83622H410.907C409.411 1.83622 408.005 2.15355 406.691 2.78822C405.421 3.37755 404.333 4.17088 403.427 5.16822L397.919 5.03222C398.463 4.26155 398.553 3.53622 398.191 2.85621C397.828 2.17622 397.193 1.83622 396.287 1.83622H395.607V1.22422H410.907H411.179ZM379.559 1.22422V48.8242H369.359V1.22422H379.559ZM369.563 43.8602V48.8242H364.123V48.1442C364.168 48.1442 364.304 48.1442 364.531 48.1442C364.803 48.1442 364.961 48.1442 365.007 48.1442C366.185 48.1442 367.183 47.7362 367.999 46.9202C368.86 46.0589 369.313 45.0389 369.359 43.8602H369.563ZM369.563 6.18822H369.359C369.313 5.00955 368.86 4.01222 367.999 3.19622C367.183 2.33488 366.185 1.90421 365.007 1.90421C364.961 1.90421 364.803 1.90421 364.531 1.90421C364.304 1.90421 364.168 1.90421 364.123 1.90421V1.22422H369.563V6.18822ZM379.355 43.8602H379.559C379.604 45.0389 380.035 46.0589 380.851 46.9202C381.712 47.7362 382.732 48.1442 383.911 48.1442C383.956 48.1442 384.092 48.1442 384.319 48.1442C384.591 48.1442 384.749 48.1442 384.795 48.1442V48.8242H379.355V43.8602ZM379.355 6.18822V1.22422H384.795V1.90421C384.749 1.90421 384.591 1.90421 384.319 1.90421C384.092 1.90421 383.956 1.90421 383.911 1.90421C382.732 1.90421 381.712 2.33488 380.851 3.19622C380.035 4.01222 379.604 5.00955 379.559 6.18822H379.355Z" fill="black"/>
</svg>
