<?xml version="1.0" encoding="UTF-8"?>
<svg id="_레이어_1" data-name="레이어_1" xmlns="http://www.w3.org/2000/svg" version="1.1" viewBox="0 0 800 800">
  <!-- Generator: Adobe Illustrator 29.8.1, SVG Export Plug-In . SVG Version: 2.1.1 Build 2)  -->
  <defs>
    <style>
      .st0 {
        fill: #5bc2d9;
      }
    </style>
  </defs>
  <g>
    <g>
      <path class="st0" d="M224.91-231.36l2.34,2.02-48.88,57.1-2.34-2,48.88-57.12Z"/>
      <path class="st0" d="M179.54-278.9l1.98,2.24-22.27,79.05.24.28,51.78-45.39,2.01,2.32-56.52,49.56-2.04-2.32,22.25-79.05-.24-.26-51.76,45.37-1.98-2.26,56.54-49.54Z"/>
      <path class="st0" d="M147.19-335.36l1.43,2.64-39.22,72.12.16.34,60.55-32.77,1.47,2.7-66.11,35.8-1.47-2.72,39.22-72.12-.16-.34-60.55,32.77-1.43-2.62,66.11-35.8Z"/>
      <path class="st0" d="M70.72-326.33l-10.9-35.25,3.06-.95,10,32.31,31.24-9.68-9.39-30.35,3.18-.97,9.39,30.35,31.14-9.63-10.24-33.14,3.16-.97,11.17,36.06-71.82,22.21Z"/>
      <path class="st0" d="M54.7-385.73l-2.58-20.22c-.48-3.95-.04-7.54,1.39-10.76,1.41-3.24,3.65-5.86,6.69-7.92,3.02-2.06,6.67-3.35,10.92-3.89,5.02-.65,9.45-.04,13.32,1.81,3.87,1.85,6.71,4.7,8.57,8.54l30.78-20.15.44,3.51-30.05,19.65c.36,1.21.63,2.46.79,3.77l2.18,17.15,31.73-4.03.4,3.04-74.58,9.49ZM91.78-410.91c-.42-3.37-1.55-6.23-3.39-8.59-1.83-2.36-4.21-4.05-7.11-5.1-2.9-1.03-6.15-1.33-9.75-.87-3.65.46-6.75,1.55-9.35,3.31-2.58,1.73-4.47,3.99-5.68,6.73-1.21,2.74-1.59,5.79-1.17,9.15l2.18,17.07,36.46-4.64-2.18-17.07Z"/>
      <path class="st0" d="M49.62-473.97l2.52-21.43c.46-3.87,1.61-7.09,3.49-9.69,1.87-2.58,4.33-4.41,7.38-5.5,3.02-1.09,6.49-1.39,10.38-.95,4.47.5,8.14,1.86,11.03,4.05,2.86,2.22,4.58,4.98,5.08,8.28l.42.06c.48-2.36,1.65-4.44,3.51-6.21,1.87-1.75,4.25-3.08,7.14-3.93,2.88-.85,6.07-1.07,9.53-.66,3.85.48,7.12,1.63,9.82,3.47,2.7,1.81,4.68,4.25,5.95,7.28,1.27,3.04,1.65,6.55,1.19,10.54l-2.76,23.48-74.66-8.79ZM87.51-493.12c.34-2.84-.1-5.38-1.29-7.6-1.21-2.2-2.96-3.97-5.26-5.32-2.3-1.33-4.94-2.18-7.94-2.52-3.28-.4-6.21-.1-8.73.85-2.5.97-4.53,2.52-6.09,4.67-1.53,2.16-2.5,4.82-2.86,8l-2.18,18.38,31.97,3.75,2.38-20.22ZM123.73-489.05c.38-3.27.06-6.17-.99-8.73-1.03-2.58-2.68-4.64-4.94-6.21-2.26-1.57-4.94-2.54-8.08-2.9-3.27-.38-6.27-.04-9.05,1.01-2.76,1.05-5.02,2.7-6.77,4.94-1.75,2.24-2.8,4.92-3.16,8l-2.4,20.42,33,3.89,2.4-20.42Z"/>
      <path class="st0" d="M59.9-539.46l10.64-35.35,3.08.93-9.75,32.39,31.32,9.43,9.15-30.44,3.18.97-9.15,30.42,31.22,9.39,9.98-33.2,3.18.95-10.86,36.16-72-21.65Z"/>
      <path class="st0" d="M143.71-557.58l-56.21-55.47,1.73-3.43,78.04,12.18-1.47,2.92-25.64-4.03-13.47,26.69,18.48,18.22-1.47,2.92ZM136.73-606l-44.38-7.01-.16.34,32.01,31.52,12.54-24.85Z"/>
      <path class="st0" d="M142.15-694.91l39.14,30.68c3.99,3.13,6.91,6.77,8.79,10.95,1.85,4.17,2.56,8.45,2.06,12.84-.48,4.37-2.16,8.4-5.04,12.09-2.86,3.65-6.39,6.25-10.54,7.76-4.17,1.53-8.51,1.89-13,1.07-4.51-.81-8.73-2.76-12.68-5.87l-39.16-30.68,1.92-2.42,39.06,30.6c3.49,2.74,7.22,4.47,11.17,5.2,3.95.73,7.74.42,11.33-.93,3.61-1.33,6.67-3.61,9.21-6.85,2.54-3.24,4.01-6.75,4.45-10.58.44-3.81-.18-7.54-1.83-11.21-1.65-3.67-4.21-6.87-7.7-9.61l-39.08-30.6,1.91-2.44Z"/>
      <path class="st0" d="M158.68-712.02l35.27-30.38,2.1,2.44-16.43,14.15,46.94,54.52-2.34,2.02-46.94-54.52-16.51,14.21-2.1-2.44Z"/>
      <path class="st0" d="M209.76-753.6l37.49,20.3.32-.2.3-42.63,3.23-1.89-.51,47.08,17.76,30.03-2.66,1.57-17.74-30.03-41.42-22.31,3.22-1.91Z"/>
      <path class="st0" d="M320.86-762.63l-17.39,5.12-.93-3.18,17.4-5.12-5.66-19.23,2.88-.85,5.64,19.23,17.29-5.08.95,3.18-17.31,5.08,5.68,19.33-2.86.85-5.68-19.33Z"/>
      <path class="st0" d="M380.28-814.31l37.07-1.71.14,3.22-33.98,1.55,1.49,32.67,30.82-1.41.14,3.33-30.8,1.41,1.65,35.88-3.09.14-3.45-75.08Z"/>
      <path class="st0" d="M483.15-750.98c-3.18,5.44-7.14,9.45-11.85,12.01-4.72,2.58-9.82,3.47-15.3,2.66-5.5-.79-10.12-3.09-13.91-6.91-3.77-3.81-6.41-8.79-7.94-14.92-1.51-6.13-1.73-12.94-.64-20.44,1.09-7.54,3.22-14.03,6.43-19.49,3.2-5.44,7.14-9.45,11.85-12.01,4.7-2.58,9.78-3.47,15.28-2.68,5.48.8,10.12,3.1,13.91,6.89,3.81,3.81,6.45,8.77,7.96,14.9,1.49,6.13,1.71,12.96.6,20.5-1.09,7.54-3.23,14.03-6.39,19.49ZM437.06-759.44c1.33,5.58,3.69,10.1,7.03,13.58,3.35,3.47,7.48,5.56,12.38,6.27,4.9.72,9.47-.1,13.68-2.48,4.21-2.36,7.74-6.03,10.62-10.99,2.88-4.98,4.82-10.92,5.82-17.84.99-6.91.81-13.18-.54-18.79-1.37-5.6-3.73-10.12-7.07-13.56-3.37-3.43-7.5-5.5-12.4-6.21-4.88-.71-9.39.1-13.61,2.46-4.19,2.34-7.72,6.01-10.6,10.96-2.86,4.98-4.82,10.95-5.82,17.9-.99,6.87-.83,13.1.5,18.69Z"/>
      <path class="st0" d="M519.05-800.74l19.19,6.83c3.75,1.33,6.75,3.37,8.99,6.09,2.24,2.72,3.59,5.91,4.05,9.53.46,3.65-.04,7.48-1.47,11.53-1.69,4.76-4.23,8.45-7.62,11.06-3.41,2.6-7.24,3.87-11.49,3.79l4.09,36.56-3.35-1.19-3.97-35.7c-1.23-.22-2.48-.55-3.71-.99l-16.29-5.79-10.72,30.13-2.9-1.05,25.2-70.83ZM524.76-756.28c3.21,1.13,6.27,1.41,9.19.85,2.94-.56,5.52-1.92,7.76-4.05,2.26-2.12,3.99-4.9,5.2-8.3,1.23-3.47,1.65-6.73,1.27-9.84-.4-3.1-1.53-5.8-3.45-8.1-1.92-2.32-4.45-4.05-7.66-5.18l-16.2-5.76-12.32,34.63,16.2,5.76Z"/>
      <path class="st0" d="M584.4-774.66l-14.27,73.71.22.14,59.94-45.21,2.62,1.63-39.81,63.77-2.54-1.57,35.03-56.11-.24-.14-56.58,42.65-2.46-1.53,13.44-69.58-.22-.14-35.03,56.12-2.62-1.63,39.81-63.77,2.7,1.67Z"/>
      <path class="st0" d="M691.95-688.7l-35.47,34.85c-3.61,3.55-7.6,5.96-11.99,7.3-4.37,1.31-8.71,1.43-13,.38-4.27-1.05-8.06-3.24-11.33-6.57-3.27-3.33-5.36-7.14-6.35-11.47-.97-4.31-.77-8.67.65-13.02,1.39-4.35,3.87-8.31,7.46-11.81l35.47-34.85,2.16,2.2-35.39,34.77c-3.16,3.1-5.36,6.57-6.59,10.42-1.25,3.83-1.43,7.6-.56,11.35.85,3.75,2.72,7.08,5.6,10.02,2.88,2.92,6.19,4.86,9.92,5.78,3.71.93,7.5.81,11.37-.36,3.85-1.17,7.36-3.29,10.5-6.39l35.41-34.79,2.16,2.2Z"/>
      <path class="st0" d="M708.86-666.63l1.71,2.56-59.7,39.95,18.6,27.82-2.76,1.83-20.32-30.35,62.46-41.8Z"/>
      <path class="st0" d="M670.24-589.05l78.63-7.46,1.51,3.51-59.46,52.02-1.29-3,19.57-17.05-11.81-27.47-25.84,2.46-1.31-3ZM711.84-563.29l33.86-29.53-.14-.34-44.73,4.29,11.01,25.58Z"/>
    </g>
    <g>
      <path class="st0" d="M529.08-407.68c-23.8-59.97-69.73-114.52-108.27-165.74-4.24-5.64-11.21-5.75-15.43,0-18.06,24.64-35.55,49.72-52.65,75.04-20.41,30.26-46.06,63.31-55.77,99.09-8.4,30.97-2.98,65.87,11.45,94.1,19.18,37.54,58.69,54,98.68,57.29.94.35,1.94.56,2.98.52,2.83-.18,5.66-.18,8.48,0,1.05.04,2.06-.18,3-.53,42.74-3.52,80.43-21.61,100.61-61.13,14.93-29.2,17.82-67.64,6.92-98.64ZM510.74-327.77c-13.42,40.69-51.74,59.59-92.2,62.26-.49.03-.96.12-1.43.21-1.87-.08-3.74-.08-5.62,0-.47-.09-.95-.18-1.43-.21-43.56-2.88-79.47-23.6-93.54-66.27-8.67-26.3-7.38-56.17,4.73-81.06,24.3-49.91,58.82-96.21,91.84-141.08,12.52,16.89,24.84,33.93,36.94,51.12,21.98,31.24,47.61,64.11,61.81,99.87,8.53,24.26,6.86,51.01-1.1,75.16Z"/>
      <path class="st0" d="M529.09-483.81c-23.82-59.98-69.73-114.52-108.28-165.75-4.23-5.64-11.22-5.76-15.43,0-18.06,24.64-35.57,49.71-52.65,75.04-20.41,30.26-46.06,63.3-55.78,99.09-8.4,30.98-2.97,65.86,11.46,94.1,19.18,37.54,58.69,53.99,98.68,57.29.94.35,1.94.56,2.97.52,2.84-.19,5.66-.19,8.5,0,1.05.03,2.06-.18,3-.53,42.74-3.53,80.42-21.62,100.61-61.14,14.93-29.2,17.81-67.64,6.92-98.63ZM414.31-400.06c-24.47,0-44.3-19.84-44.3-44.31s19.83-44.3,44.3-44.3,44.3,19.84,44.3,44.3-19.82,44.31-44.3,44.31Z"/>
    </g>
    <g>
      <path class="st0" d="M726.4-374.57c.87-.8,1.92-1.35,3.14-1.65,1.23-.3,2.5-.28,3.77.04,1.23.3,2.32.89,3.25,1.73.93.85,1.59,1.83,1.95,2.96.38,1.13.42,2.26.12,3.41-.28,1.11-.85,2.08-1.72,2.86-.86.78-1.87,1.35-3.06,1.65-1.19.3-2.4.3-3.65,0-1.31-.34-2.44-.93-3.39-1.75-.95-.85-1.61-1.81-2.02-2.92-.38-1.11-.44-2.24-.16-3.39.3-1.15.89-2.14,1.75-2.94Z"/>
      <path class="st0" d="M685.08-277.86c1.09-.49,2.26-.67,3.53-.54,1.25.12,2.44.54,3.55,1.25,1.07.7,1.89,1.61,2.5,2.7.6,1.11.91,2.26.89,3.45,0,1.17-.32,2.26-.99,3.24-.63.97-1.47,1.69-2.54,2.16-1.09.48-2.22.66-3.45.57-1.23-.08-2.38-.49-3.45-1.17-1.13-.75-2-1.67-2.62-2.76-.62-1.11-.95-2.24-.97-3.43-.02-1.17.3-2.26.95-3.24.64-1.01,1.51-1.73,2.6-2.22Z"/>
      <path class="st0" d="M615.2-200.05c1.19-.12,2.36.08,3.51.6,1.17.52,2.16,1.29,2.96,2.34.78,1.01,1.31,2.12,1.51,3.37.22,1.23.14,2.4-.24,3.53-.38,1.11-1.05,2.04-1.98,2.78-.91.71-1.95,1.11-3.12,1.21-1.15.1-2.3-.08-3.43-.56-1.13-.46-2.1-1.21-2.88-2.22-.85-1.07-1.37-2.22-1.61-3.45-.24-1.25-.18-2.44.18-3.55.36-1.13,1.01-2.06,1.94-2.78.93-.75,1.99-1.17,3.16-1.27Z"/>
      <path class="st0" d="M523.69-148.59c1.15.26,2.2.85,3.12,1.71.93.87,1.61,1.91,2.06,3.16.42,1.19.54,2.42.34,3.67-.18,1.23-.65,2.32-1.37,3.27-.75.93-1.65,1.59-2.78,1.98-1.09.38-2.2.44-3.33.16-1.15-.28-2.18-.83-3.08-1.65-.91-.81-1.59-1.83-2.02-3.02-.44-1.29-.58-2.54-.4-3.79.18-1.27.6-2.36,1.31-3.31.73-.95,1.63-1.61,2.74-1.99,1.13-.4,2.26-.46,3.41-.18Z"/>
      <path class="st0" d="M420.97-129.55c1.01.63,1.81,1.49,2.42,2.62.63,1.11.93,2.32.95,3.65.02,1.27-.24,2.48-.83,3.59-.57,1.11-1.35,1.99-2.34,2.66-.99.66-2.08.99-3.24,1.01-1.17.02-2.24-.28-3.23-.91-.99-.62-1.79-1.47-2.4-2.52-.6-1.07-.93-2.24-.95-3.53-.02-1.35.24-2.58.81-3.73.56-1.13,1.33-2.03,2.3-2.7.97-.67,2.04-1.03,3.22-1.05,1.19-.02,2.28.28,3.29.91Z"/>
    </g>
  </g>
  <g>
    <g>
      <path d="M224.91,634.67l2.34,2.02-48.88,57.1-2.34-2,48.88-57.12Z"/>
      <path d="M179.54,587.12l1.98,2.24-22.27,79.05.24.28,51.78-45.39,2.01,2.32-56.52,49.56-2.04-2.32,22.25-79.05-.24-.26-51.76,45.37-1.98-2.26,56.54-49.54Z"/>
      <path d="M147.19,530.66l1.43,2.64-39.22,72.12.16.34,60.55-32.77,1.47,2.7-66.11,35.8-1.47-2.72,39.22-72.12-.16-.34-60.55,32.77-1.43-2.62,66.11-35.8Z"/>
      <path d="M70.72,539.69l-10.9-35.25,3.06-.95,10,32.31,31.24-9.68-9.39-30.35,3.18-.97,9.39,30.35,31.14-9.63-10.24-33.14,3.16-.97,11.17,36.06-71.82,22.21Z"/>
      <path d="M54.7,480.29l-2.58-20.22c-.48-3.95-.04-7.54,1.39-10.76,1.41-3.24,3.65-5.86,6.69-7.92,3.02-2.06,6.67-3.35,10.92-3.89,5.02-.65,9.45-.04,13.32,1.81,3.87,1.85,6.71,4.7,8.57,8.54l30.78-20.15.44,3.51-30.05,19.65c.36,1.21.63,2.46.79,3.77l2.18,17.15,31.73-4.03.4,3.04-74.58,9.49ZM91.78,455.12c-.42-3.37-1.55-6.23-3.39-8.59-1.83-2.36-4.21-4.05-7.11-5.1-2.9-1.03-6.15-1.33-9.75-.87-3.65.46-6.75,1.55-9.35,3.31-2.58,1.73-4.47,3.99-5.68,6.73-1.21,2.74-1.59,5.79-1.17,9.15l2.18,17.07,36.46-4.64-2.18-17.07Z"/>
      <path d="M49.62,392.05l2.52-21.43c.46-3.87,1.61-7.09,3.49-9.69,1.87-2.58,4.33-4.41,7.38-5.5,3.02-1.09,6.49-1.39,10.38-.95,4.47.5,8.14,1.86,11.03,4.05,2.86,2.22,4.58,4.98,5.08,8.28l.42.06c.48-2.36,1.65-4.44,3.51-6.21,1.87-1.75,4.25-3.08,7.14-3.93,2.88-.85,6.07-1.07,9.53-.66,3.85.48,7.12,1.63,9.82,3.47,2.7,1.81,4.68,4.25,5.95,7.28,1.27,3.04,1.65,6.55,1.19,10.54l-2.76,23.48-74.66-8.79ZM87.51,372.9c.34-2.84-.1-5.38-1.29-7.6-1.21-2.2-2.96-3.97-5.26-5.32-2.3-1.33-4.94-2.18-7.94-2.52-3.28-.4-6.21-.1-8.73.85-2.5.97-4.53,2.52-6.09,4.67-1.53,2.16-2.5,4.82-2.86,8l-2.18,18.38,31.97,3.75,2.38-20.22ZM123.73,376.97c.38-3.27.06-6.17-.99-8.73-1.03-2.58-2.68-4.64-4.94-6.21-2.26-1.57-4.94-2.54-8.08-2.9-3.27-.38-6.27-.04-9.05,1.01-2.76,1.05-5.02,2.7-6.77,4.94-1.75,2.24-2.8,4.92-3.16,8l-2.4,20.42,33,3.89,2.4-20.42Z"/>
      <path d="M59.9,326.56l10.64-35.35,3.08.93-9.75,32.39,31.32,9.43,9.15-30.44,3.18.97-9.15,30.42,31.22,9.39,9.98-33.2,3.18.95-10.86,36.16-72-21.65Z"/>
      <path d="M143.71,308.44l-56.21-55.47,1.73-3.43,78.04,12.18-1.47,2.92-25.64-4.03-13.47,26.69,18.48,18.22-1.47,2.92ZM136.73,260.02l-44.38-7.01-.16.34,32.01,31.52,12.54-24.85Z"/>
      <path d="M142.15,171.12l39.14,30.68c3.99,3.13,6.91,6.77,8.79,10.95,1.85,4.17,2.56,8.45,2.06,12.84-.48,4.37-2.16,8.4-5.04,12.09-2.86,3.65-6.39,6.25-10.54,7.76-4.17,1.53-8.51,1.89-13,1.07-4.51-.81-8.73-2.76-12.68-5.87l-39.16-30.68,1.92-2.42,39.06,30.6c3.49,2.74,7.22,4.47,11.17,5.2,3.95.73,7.74.42,11.33-.93,3.61-1.33,6.67-3.61,9.21-6.85,2.54-3.24,4.01-6.75,4.45-10.58.44-3.81-.18-7.54-1.83-11.21-1.65-3.67-4.21-6.87-7.7-9.61l-39.08-30.6,1.91-2.44Z"/>
      <path d="M158.68,154l35.27-30.38,2.1,2.44-16.43,14.15,46.94,54.52-2.34,2.02-46.94-54.52-16.51,14.21-2.1-2.44Z"/>
      <path d="M209.76,112.42l37.49,20.3.32-.2.3-42.63,3.23-1.89-.51,47.08,17.76,30.03-2.66,1.57-17.74-30.03-41.42-22.31,3.22-1.91Z"/>
      <path d="M320.86,103.39l-17.39,5.12-.93-3.18,17.4-5.12-5.66-19.23,2.88-.85,5.64,19.23,17.29-5.08.95,3.18-17.31,5.08,5.68,19.33-2.86.85-5.68-19.33Z"/>
      <path d="M380.28,51.71l37.07-1.71.14,3.22-33.98,1.55,1.49,32.67,30.82-1.41.14,3.33-30.8,1.41,1.65,35.88-3.09.14-3.45-75.08Z"/>
      <path d="M483.15,115.04c-3.18,5.44-7.14,9.45-11.85,12.01-4.72,2.58-9.82,3.47-15.3,2.66-5.5-.79-10.12-3.09-13.91-6.91-3.77-3.81-6.41-8.79-7.94-14.92-1.51-6.13-1.73-12.94-.64-20.44,1.09-7.54,3.22-14.03,6.43-19.49,3.2-5.44,7.14-9.45,11.85-12.01,4.7-2.58,9.78-3.47,15.28-2.68,5.48.8,10.12,3.1,13.91,6.89,3.81,3.81,6.45,8.77,7.96,14.9,1.49,6.13,1.71,12.96.6,20.5-1.09,7.54-3.23,14.03-6.39,19.49ZM437.06,106.58c1.33,5.58,3.69,10.1,7.03,13.58,3.35,3.47,7.48,5.56,12.38,6.27,4.9.72,9.47-.1,13.68-2.48,4.21-2.36,7.74-6.03,10.62-10.99,2.88-4.98,4.82-10.92,5.82-17.84.99-6.91.81-13.18-.54-18.79-1.37-5.6-3.73-10.12-7.07-13.56-3.37-3.43-7.5-5.5-12.4-6.21-4.88-.71-9.39.1-13.61,2.46-4.19,2.34-7.72,6.01-10.6,10.96-2.86,4.98-4.82,10.95-5.82,17.9-.99,6.87-.83,13.1.5,18.69Z"/>
      <path d="M519.05,65.28l19.19,6.83c3.75,1.33,6.75,3.37,8.99,6.09,2.24,2.72,3.59,5.91,4.05,9.53.46,3.65-.04,7.48-1.47,11.53-1.69,4.76-4.23,8.45-7.62,11.06-3.41,2.6-7.24,3.87-11.49,3.79l4.09,36.56-3.35-1.19-3.97-35.7c-1.23-.22-2.48-.55-3.71-.99l-16.29-5.79-10.72,30.13-2.9-1.05,25.2-70.83ZM524.76,109.74c3.21,1.13,6.27,1.41,9.19.85,2.94-.56,5.52-1.92,7.76-4.05,2.26-2.12,3.99-4.9,5.2-8.3,1.23-3.47,1.65-6.73,1.27-9.84-.4-3.1-1.53-5.8-3.45-8.1-1.92-2.32-4.45-4.05-7.66-5.18l-16.2-5.76-12.32,34.63,16.2,5.76Z"/>
      <path d="M584.4,91.36l-14.27,73.71.22.14,59.94-45.21,2.62,1.63-39.81,63.77-2.54-1.57,35.03-56.11-.24-.14-56.58,42.65-2.46-1.53,13.44-69.58-.22-.14-35.03,56.12-2.62-1.63,39.81-63.77,2.7,1.67Z"/>
      <path d="M691.95,177.32l-35.47,34.85c-3.61,3.55-7.6,5.96-11.99,7.3-4.37,1.31-8.71,1.43-13,.38-4.27-1.05-8.06-3.24-11.33-6.57-3.27-3.33-5.36-7.14-6.35-11.47-.97-4.31-.77-8.67.65-13.02,1.39-4.35,3.87-8.31,7.46-11.81l35.47-34.85,2.16,2.2-35.39,34.77c-3.16,3.1-5.36,6.57-6.59,10.42-1.25,3.83-1.43,7.6-.56,11.35.85,3.75,2.72,7.08,5.6,10.02,2.88,2.92,6.19,4.86,9.92,5.78,3.71.93,7.5.81,11.37-.36,3.85-1.17,7.36-3.29,10.5-6.39l35.41-34.79,2.16,2.2Z"/>
      <path d="M708.86,199.4l1.71,2.56-59.7,39.95,18.6,27.82-2.76,1.83-20.32-30.35,62.46-41.8Z"/>
      <path d="M670.24,276.98l78.63-7.46,1.51,3.51-59.46,52.02-1.29-3,19.57-17.05-11.81-27.47-25.84,2.46-1.31-3ZM711.84,302.74l33.86-29.53-.14-.34-44.73,4.29,11.01,25.58Z"/>
    </g>
    <g>
      <path d="M529.08,458.35c-23.8-59.97-69.73-114.52-108.27-165.74-4.24-5.64-11.21-5.75-15.43,0-18.06,24.64-35.55,49.72-52.65,75.04-20.41,30.26-46.06,63.31-55.77,99.09-8.4,30.97-2.98,65.87,11.45,94.1,19.18,37.54,58.69,54,98.68,57.29.94.35,1.94.56,2.98.52,2.83-.18,5.66-.18,8.48,0,1.05.04,2.06-.18,3-.53,42.74-3.52,80.43-21.61,100.61-61.13,14.93-29.2,17.82-67.64,6.92-98.64ZM510.74,538.26c-13.42,40.69-51.74,59.59-92.2,62.26-.49.03-.96.12-1.43.21-1.87-.08-3.74-.08-5.62,0-.47-.09-.95-.18-1.43-.21-43.56-2.88-79.47-23.6-93.54-66.27-8.67-26.3-7.38-56.17,4.73-81.06,24.3-49.91,58.82-96.21,91.84-141.08,12.52,16.89,24.84,33.93,36.94,51.12,21.98,31.24,47.61,64.11,61.81,99.87,8.53,24.26,6.86,51.01-1.1,75.16Z"/>
      <path d="M529.09,382.21c-23.82-59.98-69.73-114.52-108.28-165.75-4.23-5.64-11.22-5.76-15.43,0-18.06,24.64-35.57,49.71-52.65,75.04-20.41,30.26-46.06,63.3-55.78,99.09-8.4,30.98-2.97,65.86,11.46,94.1,19.18,37.54,58.69,53.99,98.68,57.29.94.35,1.94.56,2.97.52,2.84-.19,5.66-.19,8.5,0,1.05.03,2.06-.18,3-.53,42.74-3.53,80.42-21.62,100.61-61.14,14.93-29.2,17.81-67.64,6.92-98.63ZM414.31,465.96c-24.47,0-44.3-19.84-44.3-44.31s19.83-44.3,44.3-44.3,44.3,19.84,44.3,44.3-19.82,44.31-44.3,44.31Z"/>
    </g>
    <g>
      <path d="M726.4,491.46c.87-.8,1.92-1.35,3.14-1.65,1.23-.3,2.5-.28,3.77.04,1.23.3,2.32.89,3.25,1.73.93.85,1.59,1.83,1.95,2.96.38,1.13.42,2.26.12,3.41-.28,1.11-.85,2.08-1.72,2.86-.86.78-1.87,1.35-3.06,1.65-1.19.3-2.4.3-3.65,0-1.31-.34-2.44-.93-3.39-1.75-.95-.85-1.61-1.81-2.02-2.92-.38-1.11-.44-2.24-.16-3.39.3-1.15.89-2.14,1.75-2.94Z"/>
      <path d="M685.08,588.17c1.09-.49,2.26-.67,3.53-.54,1.25.12,2.44.54,3.55,1.25,1.07.7,1.89,1.61,2.5,2.7.6,1.11.91,2.26.89,3.45,0,1.17-.32,2.26-.99,3.24-.63.97-1.47,1.69-2.54,2.16-1.09.48-2.22.66-3.45.57-1.23-.08-2.38-.49-3.45-1.17-1.13-.75-2-1.67-2.62-2.76-.62-1.11-.95-2.24-.97-3.43-.02-1.17.3-2.26.95-3.24.64-1.01,1.51-1.73,2.6-2.22Z"/>
      <path d="M615.2,665.97c1.19-.12,2.36.08,3.51.6,1.17.52,2.16,1.29,2.96,2.34.78,1.01,1.31,2.12,1.51,3.37.22,1.23.14,2.4-.24,3.53-.38,1.11-1.05,2.04-1.98,2.78-.91.71-1.95,1.11-3.12,1.21-1.15.1-2.3-.08-3.43-.56-1.13-.46-2.1-1.21-2.88-2.22-.85-1.07-1.37-2.22-1.61-3.45-.24-1.25-.18-2.44.18-3.55.36-1.13,1.01-2.06,1.94-2.78.93-.75,1.99-1.17,3.16-1.27Z"/>
      <path d="M523.69,717.43c1.15.26,2.2.85,3.12,1.71.93.87,1.61,1.91,2.06,3.16.42,1.19.54,2.42.34,3.67-.18,1.23-.65,2.32-1.37,3.27-.75.93-1.65,1.59-2.78,1.98-1.09.38-2.2.44-3.33.16-1.15-.28-2.18-.83-3.08-1.65-.91-.81-1.59-1.83-2.02-3.02-.44-1.29-.58-2.54-.4-3.79.18-1.27.6-2.36,1.31-3.31.73-.95,1.63-1.61,2.74-1.99,1.13-.4,2.26-.46,3.41-.18Z"/>
      <path d="M420.97,736.47c1.01.63,1.81,1.49,2.42,2.62.63,1.11.93,2.32.95,3.65.02,1.27-.24,2.48-.83,3.59-.57,1.11-1.35,1.99-2.34,2.66-.99.66-2.08.99-3.24,1.01-1.17.02-2.24-.28-3.23-.91-.99-.62-1.79-1.47-2.4-2.52-.6-1.07-.93-2.24-.95-3.53-.02-1.35.24-2.58.81-3.73.56-1.13,1.33-2.03,2.3-2.7.97-.67,2.04-1.03,3.22-1.05,1.19-.02,2.28.28,3.29.91Z"/>
    </g>
  </g>
</svg>