<svg width="145" height="32" viewBox="0 0 145 32" fill="none" xmlns="http://www.w3.org/2000/svg">
<path d="M94.0215 5.26562C99.3019 6.54999 102.315 11.1947 100.92 16.5137C99.5856 21.5945 94.6523 25.677 89.1494 26.6709C91.9769 25.1392 94.6371 21.5473 95.9033 17.0996C97.3301 12.085 96.5629 7.48996 94.248 5.45215L94.0215 5.26562ZM88.0557 5.14453C85.2283 6.67631 82.5689 10.2692 81.3027 14.7168C79.8301 19.8905 80.6949 24.6197 83.1865 26.5508C77.906 25.2664 74.8925 20.6208 76.2881 15.3018H76.2852C77.6195 10.2211 82.553 6.13856 88.0557 5.14453ZM64.9512 6.625H64.6924C64.2703 6.625 63.8226 6.7563 63.3506 7.01953C62.8787 7.28278 62.4912 7.72567 62.1826 8.34277H62.1641L55.4316 22.4258C55.393 22.537 55.3022 22.741 55.1572 23.04C55.012 23.3395 54.8531 23.6824 54.6807 24.0635C54.5082 24.4447 54.3582 24.8149 54.2334 25.1689C54.1086 25.5252 54.0357 25.8023 54.0176 26.002H53.7588L45.1045 8.34473C44.7959 7.7275 44.4075 7.28471 43.9355 7.02148C43.4636 6.75828 43.0069 6.62695 42.5645 6.62695H42.333V6.35449H51.5098V6.62695H51.251C50.8859 6.62708 50.5641 6.77693 50.2852 7.07617C50.0038 7.3757 49.9716 7.79787 50.1826 8.34473H50.1689L55.0596 19.6045L60.1426 8.34473H60.1377C60.3873 7.80016 60.358 7.3757 60.0518 7.07617C59.7432 6.77671 59.4072 6.62703 59.042 6.62695H58.7832L58.7764 6.625V6.35254H64.9512V6.625ZM119.319 19.0781V8.29004C119.301 7.81817 119.122 7.42115 118.786 7.10352C118.45 6.78586 118.03 6.62699 117.531 6.62695H116.981V6.35449H123.331V6.35645H125.726V6.62891H125.206C124.725 6.62891 124.311 6.78778 123.964 7.10547C123.617 7.42303 123.433 7.82027 123.415 8.29199V22.3438C123.415 23.0176 123.444 23.6237 123.501 24.1592C123.558 24.6968 123.644 25.2549 123.76 25.8379H123.501L108.905 12.7041L108.926 23.5186H108.931C108.931 23.9724 109.103 24.3656 109.45 24.6924C109.797 25.0191 110.21 25.1826 110.691 25.1826H111.241V25.4551H102.497V25.1826H103.047C103.528 25.1826 103.941 25.0191 104.288 24.6924C104.635 24.3656 104.808 23.9724 104.808 23.5186V9.35449C104.808 8.33561 104.691 7.19824 104.46 5.94336H104.748L119.319 19.0781ZM41.208 10.6387H40.9199V10.3125C40.9199 9.47515 40.6537 8.80355 40.125 8.29297C39.6781 7.85968 39.0931 7.6078 38.374 7.52832H33.2451V15.4727H37.0547C37.7672 15.4545 38.3558 15.2224 38.8164 14.7754C39.2768 14.3284 39.5078 13.7704 39.5078 13.0967V12.9062H39.7959V19.1826H39.5078V18.9648C39.5078 18.2909 39.2771 17.7345 38.8164 17.2988C38.3535 16.8609 37.7672 16.6344 37.0547 16.6162H33.2451V24.2842H37.0254C37.9873 24.2842 38.8339 24.1048 39.5645 23.751C40.2058 23.4412 40.7646 23.0134 41.2422 22.4658L41.4395 22.2256C41.959 21.5631 42.3721 20.7759 42.6807 19.8662H42.9688L41.6416 25.459H23.8662C22.8271 25.459 21.8854 25.3736 21.0391 25.2012C20.1927 25.0287 19.4416 24.7332 18.7881 24.3135C18.1345 23.8937 17.567 23.3304 17.0859 22.6201C16.9317 22.4024 16.7615 22.1236 16.5801 21.7881C16.3963 21.4523 16.2104 21.0911 16.0176 20.71C15.8247 20.3287 15.6356 19.9585 15.4541 19.6045C15.2704 19.2506 15.1114 18.9261 14.9775 18.6357C14.8438 18.3455 14.7462 18.1165 14.6895 17.9531C14.4399 17.3724 14.1453 16.934 13.8096 16.6436C13.4715 16.3531 13.1101 16.1804 12.7266 16.126V15.8535H13.6211C14.1406 15.8535 14.6467 15.7543 15.1367 15.5547C15.6291 15.355 16.0644 15.0251 16.4502 14.5713C16.8336 14.1152 17.1045 13.4894 17.2588 12.6885C17.2974 12.5229 17.3309 12.332 17.3604 12.1143C17.3876 11.8942 17.3921 11.6491 17.374 11.377C17.315 10.0677 16.9702 9.1075 16.335 8.49707C15.6996 7.88665 14.9095 7.57284 13.9678 7.55469C13.6979 7.53655 13.4054 7.53293 13.0879 7.54199C12.7725 7.55107 12.4813 7.55469 12.2227 7.55469H11.7764V23.4697C11.7765 23.9415 11.96 24.3479 12.3252 24.6836C12.6905 25.0193 13.1217 25.1875 13.623 25.1875H13.9707V25.459H5.22656V25.1875H5.60156C6.10064 25.1875 6.52955 25.0193 6.88574 24.6836C7.2419 24.3479 7.42772 23.9438 7.44824 23.4697V8.34961C7.42782 7.87769 7.24189 7.47155 6.88574 7.13574C6.52952 6.79767 6.1007 6.62895 5.60156 6.62891H5.22656V6.35742H15.125C15.9896 6.35742 16.8368 6.44737 17.665 6.62891C18.493 6.81042 19.2278 7.10372 19.8721 7.50293C20.5165 7.90231 21.0302 8.42915 21.416 9.08496C21.7993 9.73842 21.9922 10.5485 21.9922 11.5127C21.9922 12.2774 21.8221 13.0354 21.4863 13.791C21.1506 14.5465 20.6352 15.1931 19.9434 15.7285C19.2491 16.2663 18.3547 16.5893 17.2588 16.6982C17.8735 16.8798 18.4359 17.2088 18.9463 17.6807C19.4545 18.1526 19.8744 18.6267 20.2012 19.0986C20.2193 19.1349 20.3312 19.2984 20.5332 19.5889C20.7351 19.8793 20.9847 20.2404 21.2842 20.667C21.5814 21.0935 21.894 21.5273 22.2207 21.9629C22.5474 22.3986 22.8452 22.7816 23.1152 23.1084C23.5396 23.5985 23.9233 23.9954 24.2705 24.2949C24.6154 24.5967 24.9805 24.815 25.3662 24.9512C25.7519 25.0873 26.1921 25.1644 26.6934 25.1826H27.0684C27.5675 25.1826 27.9963 25.0145 28.3525 24.6787C28.7088 24.3429 28.8946 23.9391 28.915 23.4648V8.34473C28.8946 7.87279 28.7088 7.46667 28.3525 7.13086C27.9963 6.79279 27.5675 6.62502 27.0684 6.625H26.6934V6.35254H37.6885C38.1105 6.35253 38.5574 6.32496 39.0293 6.27051C39.5011 6.21607 39.939 6.15266 40.3428 6.08008C40.7467 6.00746 41.0355 5.93492 41.208 5.8623V10.6387ZM74.7129 6.62695H74.3389C73.8375 6.62695 73.4109 6.79709 73.0547 7.13281C72.6984 7.46865 72.5094 7.8747 72.4912 8.34668V23.4668C72.5094 23.9387 72.6985 24.3449 73.0547 24.6807C73.4109 25.0163 73.8375 25.1846 74.3389 25.1846H74.7129V25.457H65.9404V25.1846H66.3145C66.8159 25.1846 67.2424 25.0164 67.5986 24.6807C67.9549 24.3449 68.1417 23.941 68.1621 23.4668V8.34668C68.1417 7.8747 67.9549 7.46865 67.5986 7.13281C67.2424 6.79478 66.8136 6.62695 66.3145 6.62695H65.9404V6.35449H74.7129V6.62695ZM132.422 6.35938C133.509 6.35938 134.307 6.43884 134.809 6.59082C135.31 6.74286 135.724 7.02843 136.039 7.44824C136.354 7.86802 136.514 8.35818 136.514 8.9209C136.514 9.60847 136.277 10.1689 135.803 10.625C135.515 10.8859 135.126 11.0904 134.618 11.2334L137.376 15.3926L137.385 15.375L138.333 14.1699C138.551 13.8931 138.719 13.6495 138.842 13.4453C138.991 13.2051 139.061 13.0078 139.062 12.874C139.062 12.7492 139.027 12.633 138.957 12.5264C138.887 12.4289 138.789 12.3405 138.657 12.2861C138.535 12.225 138.333 12.1973 138.07 12.1973V11.9395H141.372V12.1973C141.107 12.1973 140.897 12.2314 140.738 12.2949C140.582 12.3562 140.414 12.4725 140.23 12.6426C140.117 12.7492 139.826 13.0873 139.37 13.6592L137.668 15.7832C137.668 15.7832 139.624 18.7914 139.792 19.0508L140.144 19.5957C140.214 19.7023 140.285 19.8109 140.355 19.8994C140.435 20.015 140.478 20.0854 140.496 20.1035V20.1123C140.723 20.4322 140.9 20.6478 141.022 20.7363L141.013 20.7393C141.19 20.8731 141.401 20.9519 141.637 20.9883V21.2383H137.258V20.9883C137.609 20.952 137.836 20.8977 137.934 20.8184C138.04 20.7367 138.093 20.6393 138.093 20.5146C138.093 20.4352 138.074 20.3643 138.04 20.3008C137.979 20.1578 137.829 19.9083 137.584 19.5342L136.269 17.5254L134.899 19.2568C134.487 19.7831 134.285 20.1397 134.285 20.3281C134.285 20.4619 134.339 20.5777 134.443 20.6934C134.55 20.8091 134.707 20.8889 134.918 20.9434C135.004 20.9706 135.197 20.9883 135.487 20.9883V21.2383H132.038V20.9883C132.424 20.9247 132.74 20.8183 132.96 20.6572C133.257 20.4439 133.67 20.006 134.196 19.3369L135.978 17.0879L132.22 11.4189H131.604V14.0264C131.604 14.5253 131.632 14.8386 131.693 14.9727C131.755 15.0975 131.859 15.2067 132.009 15.2861C132.156 15.3655 132.438 15.4014 132.851 15.4014V15.6514H128.251V15.4014C128.67 15.4014 128.952 15.3566 129.102 15.2773C129.242 15.2047 129.347 15.0975 129.408 14.9727C129.469 14.8386 129.497 14.5253 129.497 14.0264V7.99316C129.497 7.48486 129.469 7.17099 129.408 7.03711C129.347 6.91245 129.242 6.80397 129.093 6.72461C128.945 6.65427 128.664 6.6084 128.251 6.6084V6.35938H132.422ZM131.614 6.85352V10.9248H131.99C132.603 10.9248 133.062 10.8706 133.368 10.7549C133.665 10.6301 133.912 10.4252 134.087 10.1211L134.09 10.1191C134.255 9.81514 134.344 9.41353 134.344 8.93262C134.344 8.22008 134.185 7.70042 133.869 7.3623C133.545 7.02421 133.034 6.85352 132.324 6.85352H131.614Z" fill="black"/>
</svg>
